<mxfile host="app.diagrams.net" modified="2024-04-30T18:34:04.145Z" agent="Mozilla/5.0 (Windows NT 10.0; Win64; x64) AppleWebKit/537.36 (KHTML, like Gecko) Chrome/124.0.0.0 Safari/537.36" version="24.0.1" etag="cCgRcNWGUsE26IvJd7YZ" type="github">
  <diagram name="Page-1" id="v6pKISVNLiKCbqpfY3Pu">
    <mxGraphModel>
      <root>
        <mxCell id="0" />
        <mxCell id="1" parent="0" />
      </root>
    </mxGraphModel>
  </diagram>
</mxfile>
